<svg width="18" height="20" viewBox="0.30499267578125 0.25 17.3900146484375 19.5" fill="none" xmlns="http://www.w3.org/2000/svg">
<path d="M8.20513 20C9.33333 20 10.2564 19.0769 10.2564 17.9487H6.15385C6.15385 19.0769 7.06667 20 8.20513 20ZM14.359 8.71795C14.359 5.56923 12.6769 2.93333 9.74359 2.2359V1.53846C9.74359 0.68718 9.05641 0 8.20513 0C7.35385 0 6.66667 0.68718 6.66667 1.53846V2.2359C6.42051 2.29744 6.18462 2.38974 5.95897 2.47179L14.359 10.8718V8.71795ZM1.44615 0.871795L0 2.31795L2.88205 5.2C2.34872 6.22564 2.05128 7.41538 2.05128 8.71795V13.8462L0.728205 15.1692C0.0820513 15.8154 0.533333 16.9231 1.44615 16.9231H14.6051L16.3897 18.7077L17.8359 17.2615L1.44615 0.871795Z" fill="black"/>
</svg>
