<svg width="20" height="20" viewBox="0 0 20 20" fill="none" xmlns="http://www.w3.org/2000/svg">
<path d="M10 0C4.48 0 0 4.48 0 10C0 15.52 4.48 20 10 20C15.52 20 20 15.52 20 10C20 4.48 15.52 0 10 0ZM5.35 16.5C6.66 15.56 8.26 15 10 15C11.74 15 13.34 15.56 14.65 16.5C13.34 17.44 11.74 18 10 18C8.26 18 6.66 17.44 5.35 16.5ZM16.14 15.12C14.45 13.8 12.32 13 10 13C7.68 13 5.55 13.8 3.86 15.12C2.7 13.73 2 11.95 2 10C2 5.58 5.58 2 10 2C14.42 2 18 5.58 18 10C18 11.95 17.3 13.73 16.14 15.12Z" fill="#707070"/>
</svg>
